<?xml version="1.0" encoding="UTF-8"?>
<svg id="Ebene_1" xmlns="http://www.w3.org/2000/svg" version="1.1" viewBox="0 0 800 800">
  <!-- Generator: Adobe Illustrator 29.5.1, SVG Export Plug-In . SVG Version: 2.1.0 Build 141)  -->
  <defs>
    <style>
      .st0 {
        fill: none;
        stroke: #ededed;
        stroke-linejoin: round;
        stroke-width: 33.33px;
      }
    </style>
  </defs>
  <path class="st0" d="M400,230.3c-36.67-46.67-93.2-93.34-233.29-96.77-9.2-.22-16.71,7.25-16.71,16.45v403.24c0,9.2,7.51,16.43,16.7,16.73,140.1,4.58,196.63,66.69,233.3,113.37M400,230.3c36.67-46.67,93.2-93.34,233.29-96.77,9.2-.22,16.71,7.08,16.71,16.29v403.39c0,9.2-7.5,16.46-16.7,16.76-140.1,4.58-196.63,66.69-233.3,113.37M400,230.3v453.03"/>
  <path class="st0" d="M641.18,200h75.49c9.2,0,16.67,7.46,16.67,16.67v434.63c0,13.49-15.89,22.45-28.22,16.97-26.5-11.78-70.73-26.16-128.65-26.16-98.04,0-176.47,57.89-176.47,57.89,0,0-78.43-57.89-176.47-57.89-57.91,0-102.14,14.39-128.65,26.16-12.33,5.48-28.22-3.48-28.22-16.97V216.67c0-9.2,7.46-16.67,16.67-16.67h75.49"/>
</svg>